<svg xmlns="http://www.w3.org/2000/svg" version="1.1" xmlns:xlink="http://www.w3.org/1999/xlink" xmlns:svgjs="http://svgjs.dev/svgjs" width="1000" height="1125" viewBox="0 0 1000 1125"><g transform="matrix(1,0,0,1,1.7053025658242404e-13,0)"><svg viewBox="0 0 320 360" data-background-color="#ffffff" preserveAspectRatio="xMidYMid meet" height="1125" width="1000" xmlns="http://www.w3.org/2000/svg" xmlns:xlink="http://www.w3.org/1999/xlink"><g id="tight-bounds" transform="matrix(1,0,0,1,0,0)"><svg viewBox="0 0 320 360" height="360" width="320"><g><svg></svg></g><g><svg viewBox="0 0 320 360" height="360" width="320"><g><path xmlns="http://www.w3.org/2000/svg" d="M20.961 227.22l3.726 4.658-1.863-6.056c-0.466-2.795-3.726 0.466-1.863 1.398M25.153 224.425c1.397 2.329 2.795 4.658 2.795 6.987 0 3.261 2.795 4.658 5.123 5.589-3.261-3.726-5.124-13.974-7.918-12.576M204.017 26.929c7.918 0 15.371-0.932 23.756 0.931 20.495 5.124 37.729 15.371 49.374 29.811l32.606 52.169c1.397 13.042 4.192 27.482 3.726 43.319 3.261 0 2.795-4.658 6.521-5.59-3.726 9.316-5.59 20.961-6.521 34.469-2.329-7.453 0-18.632 0.466-24.687-3.261 5.124-5.124 1.397-5.124-0.932 0.466-3.726-1.397-3.261-2.795-4.658-5.124-4.658-8.384-9.782-12.11-17.7 2.329-6.055 2.795-14.905-4.658-19.563-2.329-1.397-5.124-3.726-6.521-7.453-1.863-5.124-5.124-11.179-4.193-19.097 0.466-2.329-6.987 5.124-11.179 1.863-18.166-12.576-36.332-27.016-58.224-39.127-11.645 0-20.029-4.192-24.221-9.316-3.726-4.658-0.932-10.713 4.658-11.179 3.261 0 6.987-0.932 9.782 0.932 0.466-1.863 2.329-4.192 4.657-4.192M157.904 16.215l0.932 0.466c4.658 0.932 6.987 7.453 12.11 5.124 0 3.261 0.466 6.521-0.466 8.85-1.397 3.726-5.59 3.726-8.85 3.726-31.208-1.863-49.374 11.179-68.471 22.358-5.124 3.261-10.713 5.59-14.906 9.782-20.029 18.632-41.921 35.866-47.045 70.335l-4.192 38.195c-0.466 4.192-5.124 8.384-4.192 13.508l3.26 22.824c-3.261-3.261-5.124 0.932-4.192 2.795 0.466 1.397 2.329 6.055 5.124 1.863 3.726 6.987 7.453 20.495 12.576 26.55 15.837 18.632 36.332 35.4 53.101 52.169 4.192-0.932 7.453-0.932 8.384-3.727 1.397 2.795-1.397 5.59-3.726 6.056 7.453 4.658 15.837 8.85 27.016 9.781 14.44 0.932 27.948 3.261 40.524 6.522 6.521-1.863 13.042-2.795 20.029-3.261 2.329 0 3.726-3.726 6.521-4.658l0.466-4.658c2.795 4.192 2.329-1.397 0.466-4.192 3.261 2.795 4.192 5.124 5.589 6.987 0-1.397 3.726-6.521 3.727-0.466l0.931-6.055c1.397-0.932 1.863 5.124 3.261 0.931 1.397-4.192 4.192-0.932 6.987-2.329-0.932 1.863-0.466 5.59 2.794 3.261l3.727-3.261c2.329 5.59 6.055 3.261 7.918 2.329 20.495-13.042 40.99-28.413 60.553-43.784l-0.466 6.055 2.329-7.453c2.329 2.329 4.192 0.466 5.124-0.931 2.795-4.658 6.521-9.316 12.577-13.508-7.453 20.029-16.303 35.866-27.482 48.908l-4.658 5.59c0 3.261-0.932 7.453-4.658 7.918-1.863 0.466-5.59-0.932-8.384 1.863-1.397 1.863 3.261 5.59-0.466 2.795-3.261-2.329-6.521 0-10.248 0.932-2.795 0.932 1.863 3.726 2.795 5.589 0.932 1.863 1.863 3.726 1.398 6.056l-5.124-5.59c-6.055 3.261-9.782 9.316-14.906 13.974-2.329 1.863-1.397 5.124-1.397 7.918-3.261 0-6.987-0.932-8.85 0.932-1.397 1.863-0.932 4.658-0.932 7.453-4.658-0.466-5.124-7.453-9.315-6.056-4.192 0.932-8.85 1.397-12.577 3.727 2.795 5.59-4.658 2.329-3.726 3.26-6.987-4.192-13.042-7.453-20.495-4.658-15.837-5.124-35.4-2.795-49.84-0.931 0-2.329 0.466-4.658-0.466-5.124-0.932 2.329-3.726 1.397-3.26 1.397-8.85-6.055-17.7-9.782-27.016-14.905-8.384 0.932-16.303-3.261-18.632-5.59-6.521-6.055-13.974-2.795-20.029-4.192-13.042-3.261-17.7-16.769-19.098-26.084-0.932-4.658-4.658-6.521-6.055-6.056-6.055-19.563-15.371-37.263-22.824-55.429-1.863-4.658-1.397-9.316-1.397-14.44 2.329 0.932 4.658 0.466 4.192-2.794-2.329-15.371-7.918-27.016-13.974-38.195 3.261-15.837 3.726-34.469 11.179-48.443 6.521-12.576 18.632-19.098 27.016-29.811 2.795-3.726 2.795-8.85 5.59-12.11 9.316-9.316 18.632-19.098 28.879-27.482 4.658-3.726 10.247 0 17.234-1.397 2.329-8.384 11.645-15.837 20.495-13.508 3.726 0.932 11.179-8.85 13.508-9.782 3.726-1.397 1.863 3.726 1.863 6.987 8.85-6.987 20.961-10.713 32.14-14.906" fill="#4790fc" fill-rule="nonzero" stroke="none" stroke-width="1" stroke-linecap="butt" stroke-linejoin="miter" stroke-miterlimit="10" stroke-dasharray="" stroke-dashoffset="0" font-family="none" font-weight="none" font-size="none" text-anchor="none" style="mix-blend-mode: normal" data-fill-palette-color="tertiary"></path></g><g transform="matrix(1,0,0,1,64,160.93721286370598)"><svg viewBox="0 0 192 38.125574272588054" height="38.125574272588054" width="192"><g><svg viewBox="0 0 192 38.125574272588054" height="38.125574272588054" width="192"><g><svg viewBox="0 0 192 38.125574272588054" height="38.125574272588054" width="192"><g><svg viewBox="0 0 192 38.125574272588054" height="38.125574272588054" width="192"><g id="textblocktransform"><svg viewBox="0 0 192 38.125574272588054" height="38.125574272588054" width="192" id="textblock"><g><svg viewBox="0 0 192 38.125574272588054" height="38.125574272588054" width="192"><g transform="matrix(1,0,0,1,0,0)"><svg width="192" viewBox="2.8600001335144043 -37.5 191.2899932861328 37.9900016784668" height="38.125574272588054" data-palette-color="#4790fc"><path d="M2.86-35.55L12.23-35.55 18.95-9.84 25.63-35.55 35.01-35.55 35.01 0 27.81 0 27.81-9.62 28.47-24.44 21.36 0 16.48 0 9.38-24.44 10.03-9.62 10.03 0 2.86 0 2.86-35.55ZM39.62-12.38L39.62-14.06Q39.62-20.07 42.45-23.49 45.29-26.9 50.29-26.9L50.29-26.9Q55.34-26.9 58.18-23.49 61.01-20.07 61.01-14.01L61.01-14.01 61.01-12.33Q61.01-6.3 58.2-2.91 55.39 0.49 50.34 0.49L50.34 0.49Q45.26 0.49 42.44-2.92 39.62-6.32 39.62-12.38L39.62-12.38ZM46.56-14.06L46.56-12.33Q46.56-5.25 50.34-5.25L50.34-5.25Q53.83-5.25 54.1-11.16L54.1-11.16 54.12-14.06Q54.12-17.68 53.12-19.42 52.12-21.17 50.29-21.17L50.29-21.17Q48.53-21.17 47.54-19.42 46.56-17.68 46.56-14.06L46.56-14.06ZM72.04-37.5L72.04-24.1Q74.29-26.9 77.56-26.9L77.56-26.9Q81.17-26.9 83.05-24.37 84.93-21.83 84.96-16.8L84.96-16.8 84.96 0 78.02 0 78.02-16.72Q78.02-19.04 77.3-20.08 76.58-21.12 74.97-21.12L74.97-21.12Q73.09-21.12 72.04-19.38L72.04-19.38 72.04 0 65.13 0 65.13-37.5 72.04-37.5ZM109.42 0L102.46 0Q102.17-0.61 101.87-2.05L101.87-2.05Q100.02 0.49 96.84 0.49L96.84 0.49Q93.52 0.49 91.34-1.71 89.15-3.91 89.15-7.4L89.15-7.4Q89.15-11.55 91.8-13.82 94.45-16.09 99.43-16.14L99.43-16.14 101.53-16.14 101.53-18.26Q101.53-20.04 100.92-20.78 100.31-21.51 99.14-21.51L99.14-21.51Q96.55-21.51 96.55-18.48L96.55-18.48 89.64-18.48Q89.64-22.14 92.39-24.52 95.13-26.9 99.33-26.9L99.33-26.9Q103.68-26.9 106.06-24.65 108.44-22.39 108.44-18.19L108.44-18.19 108.44-5.76Q108.49-2.34 109.42-0.42L109.42-0.42 109.42 0ZM98.38-4.93L98.38-4.93Q99.53-4.93 100.33-5.4 101.14-5.86 101.53-6.49L101.53-6.49 101.53-11.99 99.87-11.99Q98.11-11.99 97.1-10.86 96.09-9.74 96.09-7.86L96.09-7.86Q96.09-4.93 98.38-4.93ZM113.47-26.42L119.94-26.42 120.13-23.97Q122.45-26.9 126.26-26.9L126.26-26.9Q130.21-26.9 131.85-23.34L131.85-23.34Q134.12-26.9 138.32-26.9L138.32-26.9Q145.25-26.9 145.42-17.31L145.42-17.31 145.42 0 138.52 0 138.52-16.87Q138.52-19.17 137.88-20.14 137.25-21.12 135.73-21.12L135.73-21.12Q133.8-21.12 132.85-18.75L132.85-18.75 132.9-17.92 132.9 0 125.99 0 125.99-16.82Q125.99-19.09 125.38-20.1 124.77-21.12 123.21-21.12L123.21-21.12Q121.43-21.12 120.38-19.19L120.38-19.19 120.38 0 113.47 0 113.47-26.42ZM161.19 0.49L161.19 0.49Q155.87 0.49 152.89-2.69 149.91-5.86 149.91-11.77L149.91-11.77 149.91-13.87Q149.91-20.12 152.65-23.51 155.38-26.9 160.49-26.9L160.49-26.9Q165.47-26.9 167.98-23.72 170.5-20.53 170.54-14.28L170.54-14.28 170.54-10.89 156.8-10.89Q156.95-7.96 158.09-6.6 159.24-5.25 161.63-5.25L161.63-5.25Q165.1-5.25 167.42-7.62L167.42-7.62 170.13-3.44Q168.86-1.68 166.44-0.6 164.03 0.49 161.19 0.49ZM156.85-15.72L156.85-15.72 163.76-15.72 163.76-16.36Q163.71-18.73 162.98-19.95 162.24-21.17 160.44-21.17 158.63-21.17 157.81-19.87 156.99-18.58 156.85-15.72ZM173.52-12.01L173.52-14.01Q173.52-20.51 175.72-23.71 177.91-26.9 182.11-26.9L182.11-26.9Q185.17-26.9 187.19-24.27L187.19-24.27 187.19-37.5 194.15-37.5 194.15 0 187.88 0 187.56-2.69Q185.43 0.49 182.09 0.49L182.09 0.49Q177.94 0.49 175.75-2.69 173.57-5.86 173.52-12.01L173.52-12.01ZM180.45-14.11L180.45-12.28Q180.45-8.37 181.28-6.82 182.11-5.27 184.09-5.27L184.09-5.27Q186.14-5.27 187.19-7.1L187.19-7.1 187.19-19.17Q186.17-21.12 184.12-21.12L184.12-21.12Q182.21-21.12 181.33-19.58 180.45-18.04 180.45-14.11L180.45-14.11Z" opacity="1" transform="matrix(1,0,0,1,0,0)" fill="#4790fc" class="wordmark-text-0" data-fill-palette-color="primary" id="text-0"></path></svg></g></svg></g></svg></g></svg></g><g></g></svg></g></svg></g></svg></g></svg></g><defs></defs></svg><rect width="320" height="360" fill="none" stroke="none" visibility="hidden"></rect></g></svg></g></svg>